<svg width="25" height="24" viewBox="0 0 25 24" fill="none" xmlns="http://www.w3.org/2000/svg">
<g clip-path="url(#clip0_174_1745)">
<path fill-rule="evenodd" clip-rule="evenodd" d="M12.4759 0.5C9.62708 0.501478 6.87172 1.51046 4.70246 3.34652C2.53319 5.18259 1.09149 7.72601 0.63513 10.522C0.178772 13.318 0.737513 16.1842 2.21146 18.6082C3.6854 21.0321 5.97843 22.8558 8.68052 23.753C9.27664 23.8636 9.50118 23.4941 9.50118 23.18C9.50118 22.8658 9.48926 21.955 9.48528 20.9592C6.14698 21.6804 5.44157 19.5505 5.44157 19.5505C4.89711 18.1674 4.11022 17.8039 4.11022 17.8039C3.0213 17.065 4.1917 17.0788 4.1917 17.0788C5.39786 17.1637 6.03174 18.3097 6.03174 18.3097C7.10079 20.1333 8.83948 19.6058 9.52304 19.2976C9.63034 18.5251 9.94232 17.9995 10.2861 17.7012C7.61942 17.4008 4.81762 16.3774 4.81762 11.8054C4.8011 10.6197 5.24361 9.47305 6.0536 8.60268C5.9304 8.30236 5.51906 7.08923 6.17083 5.44143C6.17083 5.44143 7.17829 5.12136 9.47138 6.66444C11.4383 6.12962 13.5135 6.12962 15.4803 6.66444C17.7714 5.12136 18.7769 5.44143 18.7769 5.44143C19.4306 7.08528 19.0193 8.29841 18.8961 8.60268C19.7087 9.47319 20.1521 10.6218 20.1341 11.8094C20.1341 16.3912 17.3263 17.4008 14.6557 17.6952C15.0849 18.0667 15.4684 18.7918 15.4684 19.9061C15.4684 21.5026 15.4545 22.7868 15.4545 23.18C15.4545 23.4981 15.6711 23.8695 16.2791 23.753C18.9815 22.8557 21.2748 21.0317 22.7487 18.6073C24.2226 16.183 24.7811 13.3163 24.3242 10.5201C23.8673 7.7238 22.4249 5.18035 20.2549 3.34461C18.0849 1.50886 15.3289 0.500541 12.4798 0.5H12.4759Z" fill="#614AD3"/>
<path d="M5.02002 17.632C4.99419 17.6913 4.89881 17.7091 4.82131 17.6676C4.74382 17.6261 4.6862 17.549 4.71402 17.4878C4.74183 17.4265 4.83523 17.4107 4.91272 17.4522C4.99022 17.4937 5.04983 17.5727 5.02002 17.632Z" fill="#614AD3"/>
<path d="M5.50681 18.1714C5.46566 18.192 5.41858 18.1978 5.37364 18.1877C5.32869 18.1776 5.28867 18.1523 5.26042 18.1161C5.18292 18.0331 5.16702 17.9185 5.22663 17.8671C5.28624 17.8157 5.39355 17.8395 5.47105 17.9224C5.54855 18.0054 5.56643 18.12 5.50681 18.1714Z" fill="#614AD3"/>
<path d="M5.97983 18.857C5.90631 18.9084 5.78112 18.857 5.71157 18.7543C5.69234 18.7359 5.67704 18.7138 5.6666 18.6893C5.65615 18.6649 5.65076 18.6386 5.65076 18.612C5.65076 18.5855 5.65615 18.5592 5.6666 18.5347C5.67704 18.5103 5.69234 18.4882 5.71157 18.4698C5.78509 18.4204 5.91028 18.4698 5.97983 18.5705C6.04938 18.6713 6.05137 18.8057 5.97983 18.857Z" fill="#614AD3"/>
<path d="M6.6217 19.5209C6.55613 19.594 6.423 19.5742 6.31371 19.4754C6.20442 19.3766 6.17858 19.2423 6.24415 19.1712C6.30972 19.1 6.44286 19.1198 6.55612 19.2166C6.66939 19.3134 6.69125 19.4497 6.6217 19.5209Z" fill="#614AD3"/>
<path d="M7.52176 19.9081C7.49195 20.001 7.35683 20.0425 7.22171 20.003C7.08659 19.9635 6.99717 19.8528 7.023 19.758C7.04883 19.6631 7.18594 19.6197 7.32305 19.6631C7.46016 19.7066 7.54759 19.8113 7.52176 19.9081Z" fill="#614AD3"/>
<path d="M8.50342 19.9753C8.50342 20.0721 8.39215 20.1551 8.24908 20.1571C8.10601 20.159 7.98877 20.08 7.98877 19.9832C7.98877 19.8864 8.10004 19.8034 8.24311 19.8014C8.38618 19.7995 8.50342 19.8765 8.50342 19.9753Z" fill="#614AD3"/>
<path d="M9.41748 19.8232C9.43537 19.92 9.33601 20.0207 9.19294 20.0445C9.04987 20.0682 8.92468 20.0109 8.9068 19.916C8.88892 19.8212 8.99225 19.7185 9.13134 19.6928C9.27044 19.6671 9.3996 19.7264 9.41748 19.8232Z" fill="#614AD3"/>
</g>
<defs>
<clipPath id="clip0_174_1745">
<rect width="24" height="24" fill="white" transform="translate(0.475586)"/>
</clipPath>
</defs>
</svg>
