<svg width="33" height="32" viewBox="0 0 33 32" fill="none" xmlns="http://www.w3.org/2000/svg">
<path fill-rule="evenodd" clip-rule="evenodd" d="M13.0475 11.9587H17.9995V14.4254C18.7129 13.0067 20.5422 11.7321 23.2902 11.7321C28.5582 11.7321 29.8089 14.5561 29.8089 19.7374V29.3334H24.4755V20.9174C24.4755 17.9667 23.7622 16.3027 21.9462 16.3027C19.4275 16.3027 18.3809 18.0961 18.3809 20.9161V29.3334H13.0475V11.9587ZM3.90221 29.1067H9.23555V11.7321H3.90221V29.1067ZM9.99955 6.06675C9.99974 6.51378 9.91109 6.9564 9.73873 7.36886C9.56637 7.78133 9.31375 8.15543 8.99555 8.46942C8.35075 9.11025 7.47796 9.46895 6.56888 9.46675C5.6614 9.46614 4.79063 9.10835 4.14488 8.47075C3.82783 8.1557 3.57606 7.78118 3.404 7.36866C3.23195 6.95613 3.14298 6.51371 3.14221 6.06675C3.14221 5.16408 3.50221 4.30008 4.14621 3.66275C4.79139 3.02429 5.66253 2.66635 6.57021 2.66675C7.47955 2.66675 8.35155 3.02542 8.99555 3.66275C9.63821 4.30008 9.99955 5.16408 9.99955 6.06675Z" fill="#614AD3"/>
</svg>
