<svg width="33" height="32" viewBox="0 0 33 32" fill="none" xmlns="http://www.w3.org/2000/svg">
<path fill-rule="evenodd" clip-rule="evenodd" d="M12.3622 17.9403L16.4785 20.7548L20.4465 18.0174L29.3411 26.7926C29.1069 26.8683 28.8567 26.909 28.5964 26.909H4.3549C4.0349 26.909 3.72945 26.8465 3.44872 26.7345L12.3622 17.9403ZM31.0211 10.7286V24.4843C31.0211 24.8435 30.9425 25.1839 30.8029 25.4908L22.0844 16.8886L31.0211 10.7286ZM1.93018 10.8057L10.7185 16.8159L2.08436 25.3366C1.9821 25.0641 1.92987 24.7754 1.93018 24.4843V10.8057ZM28.5964 5.09082C29.9345 5.09082 31.0211 6.17591 31.0211 7.51555V8.36791L16.4727 18.397L1.93018 8.45082V7.51555C1.93018 6.17737 3.01527 5.09082 4.3549 5.09082H28.5964Z" fill="#614AD3"/>
</svg>
