<svg width="33" height="32" viewBox="0 0 33 32" fill="none" xmlns="http://www.w3.org/2000/svg">
<path d="M16.4756 2V9C16.4756 9.79565 16.7917 10.5587 17.3543 11.1213C17.9169 11.6839 18.6799 12 19.4756 12H26.4756V27C26.4756 27.7956 26.1595 28.5587 25.5969 29.1213C25.0343 29.6839 24.2712 30 23.4756 30H16.0956L16.1316 29.97C16.8668 29.3676 17.4587 28.609 17.8641 27.7494C18.2696 26.8897 18.4785 25.9505 18.4756 25C18.4757 23.7524 18.0095 22.5498 17.1684 21.6284C16.3272 20.707 15.172 20.1333 13.9296 20.02C14.8885 18.9592 15.4371 17.5909 15.4765 16.1615C15.5158 14.732 15.0434 13.3356 14.1442 12.2237C13.2451 11.1117 11.9784 10.3575 10.5724 10.0969C9.1664 9.8362 7.71353 10.0863 6.47559 10.802V5C6.47559 4.20435 6.79166 3.44129 7.35427 2.87868C7.91687 2.31607 8.67994 2 9.47559 2H16.4756ZM18.4756 2.5V9C18.4756 9.26522 18.5809 9.51957 18.7685 9.70711C18.956 9.89464 19.2104 10 19.4756 10H25.9756L18.4756 2.5ZM13.4756 16C13.4756 17.0609 13.0542 18.0783 12.304 18.8284C11.5539 19.5786 10.5365 20 9.47559 20C8.41472 20 7.3973 19.5786 6.64716 18.8284C5.89701 18.0783 5.47559 17.0609 5.47559 16C5.47559 14.9391 5.89701 13.9217 6.64716 13.1716C7.3973 12.4214 8.41472 12 9.47559 12C10.5365 12 11.5539 12.4214 12.304 13.1716C13.0542 13.9217 13.4756 14.9391 13.4756 16ZM16.4756 25C16.4756 27.49 14.4756 30 9.47559 30C4.47559 30 2.47559 27.5 2.47559 25C2.47559 24.2044 2.79166 23.4413 3.35427 22.8787C3.91687 22.3161 4.67994 22 5.47559 22H13.4756C14.2712 22 15.0343 22.3161 15.5969 22.8787C16.1595 23.4413 16.4756 24.2044 16.4756 25Z" fill="#614AD3"/>
</svg>
