<svg width="32" height="32" viewBox="0 0 32 32" fill="none" xmlns="http://www.w3.org/2000/svg">
<path d="M16 2V9C16 9.79565 16.3161 10.5587 16.8787 11.1213C17.4413 11.6839 18.2044 12 19 12H26V27C26 27.7956 25.6839 28.5587 25.1213 29.1213C24.5587 29.6839 23.7956 30 23 30H15.62L15.656 29.97C16.3912 29.3676 16.9831 28.609 17.3885 27.7494C17.794 26.8897 18.0029 25.9505 18 25C18.0002 23.7524 17.5339 22.5498 16.6928 21.6284C15.8517 20.707 14.6964 20.1333 13.454 20.02C14.4129 18.9592 14.9615 17.5909 15.0009 16.1615C15.0402 14.732 14.5678 13.3356 13.6686 12.2237C12.7695 11.1117 11.5028 10.3575 10.0968 10.0969C8.69082 9.8362 7.23795 10.0863 6 10.802V5C6 4.20435 6.31607 3.44129 6.87868 2.87868C7.44129 2.31607 8.20435 2 9 2H16ZM18 2.5V9C18 9.26522 18.1054 9.51957 18.2929 9.70711C18.4804 9.89464 18.7348 10 19 10H25.5L18 2.5ZM13 16C13 17.0609 12.5786 18.0783 11.8284 18.8284C11.0783 19.5786 10.0609 20 9 20C7.93913 20 6.92172 19.5786 6.17157 18.8284C5.42143 18.0783 5 17.0609 5 16C5 14.9391 5.42143 13.9217 6.17157 13.1716C6.92172 12.4214 7.93913 12 9 12C10.0609 12 11.0783 12.4214 11.8284 13.1716C12.5786 13.9217 13 14.9391 13 16ZM16 25C16 27.49 14 30 9 30C4 30 2 27.5 2 25C2 24.2044 2.31607 23.4413 2.87868 22.8787C3.44129 22.3161 4.20435 22 5 22H13C13.7956 22 14.5587 22.3161 15.1213 22.8787C15.6839 23.4413 16 24.2044 16 25Z" fill="#614AD3"/>
</svg>
