<svg width="476" height="476" viewBox="0 0 476 476" fill="none" xmlns="http://www.w3.org/2000/svg">
<rect width="476" height="476" rx="238" fill="url(#paint0_linear_114_968)"/>
<g clip-path="url(#clip0_114_968)">
<path d="M116.688 112H167.312C169.901 112 172 114.099 172 116.688V167.312C172 169.901 169.901 172 167.312 172H116.688C114.099 172 112 169.901 112 167.312V116.688C112 114.099 114.099 112 116.688 112Z" fill="#3178C6"/>
<path d="M147.278 158.986V165.46C148.33 165.999 149.576 166.404 151.013 166.674C152.451 166.943 153.966 167.078 155.558 167.078C157.11 167.078 158.585 166.93 159.982 166.633C161.379 166.336 162.604 165.847 163.656 165.167C164.709 164.485 165.543 163.595 166.157 162.496C166.771 161.397 167.078 160.038 167.078 158.42C167.078 157.247 166.903 156.218 166.552 155.335C166.201 154.452 165.695 153.666 165.033 152.978C164.372 152.29 163.579 151.674 162.655 151.127C161.73 150.581 160.687 150.065 159.526 149.58C158.676 149.229 157.914 148.889 157.239 148.558C156.564 148.228 155.99 147.891 155.518 147.547C155.045 147.203 154.681 146.839 154.424 146.454C154.168 146.07 154.04 145.635 154.04 145.15C154.04 144.704 154.154 144.303 154.384 143.946C154.613 143.589 154.938 143.282 155.356 143.026C155.774 142.769 156.287 142.57 156.895 142.429C157.502 142.287 158.177 142.216 158.919 142.216C159.459 142.216 160.029 142.257 160.63 142.338C161.23 142.419 161.834 142.543 162.442 142.712C163.049 142.881 163.64 143.093 164.213 143.349C164.787 143.605 165.317 143.902 165.803 144.239V138.191C164.817 137.813 163.741 137.533 162.573 137.351C161.406 137.169 160.066 137.078 158.555 137.078C157.016 137.078 155.558 137.243 154.182 137.574C152.805 137.904 151.593 138.42 150.547 139.121C149.501 139.823 148.675 140.716 148.067 141.802C147.46 142.887 147.156 144.185 147.156 145.696C147.156 147.624 147.713 149.27 148.827 150.632C149.94 151.994 151.63 153.147 153.898 154.091C154.789 154.455 155.619 154.812 156.388 155.163C157.158 155.514 157.822 155.878 158.383 156.255C158.943 156.633 159.385 157.044 159.709 157.489C160.033 157.934 160.195 158.44 160.195 159.007C160.195 159.425 160.093 159.812 159.891 160.17C159.689 160.527 159.381 160.837 158.97 161.1C158.558 161.363 158.045 161.569 157.431 161.717C156.817 161.866 156.098 161.94 155.275 161.94C153.871 161.94 152.481 161.694 151.104 161.201C149.727 160.709 148.452 159.971 147.278 158.986ZM136.488 142.877H144.812V137.547H121.609V142.877H129.893V166.609H136.488V142.877Z" fill="white"/>
</g>
<path d="M257.332 132.584C256.71 132.369 256.065 132.167 255.401 131.975C255.51 131.53 255.61 131.09 255.699 130.658C257.161 123.561 256.205 117.843 252.941 115.961C249.811 114.156 244.692 116.038 239.522 120.537C239.025 120.969 238.526 121.428 238.028 121.908C237.696 121.59 237.364 121.283 237.034 120.989C231.615 116.179 226.184 114.151 222.923 116.039C219.796 117.849 218.87 123.224 220.186 129.95C220.313 130.6 220.462 131.263 220.63 131.938C219.861 132.156 219.119 132.389 218.409 132.636C212.057 134.851 208 138.322 208 141.922C208 145.641 212.355 149.37 218.971 151.632C219.494 151.81 220.035 151.979 220.594 152.139C220.413 152.869 220.255 153.584 220.123 154.281C218.868 160.89 219.848 166.138 222.966 167.937C226.188 169.795 231.594 167.885 236.859 163.283C237.275 162.92 237.692 162.534 238.111 162.13C238.653 162.652 239.194 163.146 239.733 163.609C244.832 167.997 249.868 169.769 252.984 167.965C256.202 166.102 257.248 160.465 255.89 153.606C255.787 153.082 255.666 152.547 255.53 152.002C255.91 151.89 256.283 151.774 256.646 151.654C263.525 149.375 268 145.69 268 141.922C268 138.309 263.812 134.814 257.332 132.584ZM255.84 149.221C255.512 149.329 255.175 149.434 254.832 149.536C254.073 147.132 253.048 144.576 251.794 141.935C252.991 139.357 253.976 136.833 254.714 134.445C255.328 134.622 255.924 134.81 256.498 135.007C262.05 136.919 265.437 139.745 265.437 141.922C265.437 144.242 261.779 147.253 255.84 149.221ZM253.376 154.104C253.976 157.137 254.062 159.879 253.664 162.022C253.307 163.949 252.588 165.233 251.7 165.747C249.809 166.842 245.765 165.419 241.404 161.666C240.904 161.236 240.401 160.777 239.896 160.291C241.586 158.442 243.276 156.292 244.925 153.905C247.826 153.647 250.566 153.227 253.051 152.652C253.173 153.146 253.282 153.63 253.376 154.104ZM228.455 165.558C226.608 166.211 225.137 166.229 224.247 165.716C222.355 164.625 221.568 160.411 222.641 154.759C222.764 154.112 222.91 153.447 223.079 152.767C225.537 153.311 228.257 153.702 231.165 153.937C232.825 156.273 234.563 158.421 236.315 160.301C235.932 160.67 235.551 161.022 235.172 161.353C232.844 163.388 230.511 164.832 228.455 165.558ZM219.8 149.206C216.875 148.206 214.459 146.907 212.803 145.489C211.314 144.214 210.563 142.949 210.563 141.922C210.563 139.737 213.82 136.951 219.253 135.057C219.912 134.827 220.602 134.61 221.318 134.407C222.069 136.849 223.054 139.402 224.242 141.985C223.039 144.605 222.04 147.199 221.281 149.67C220.771 149.523 220.276 149.369 219.8 149.206ZM222.702 129.458C221.574 123.695 222.323 119.348 224.207 118.257C226.215 117.095 230.653 118.752 235.332 122.906C235.631 123.172 235.931 123.45 236.232 123.737C234.489 125.609 232.766 127.74 231.121 130.062C228.299 130.324 225.598 130.744 223.114 131.307C222.958 130.678 222.82 130.061 222.702 129.458ZM248.583 135.849C247.989 134.823 247.38 133.822 246.758 132.848C248.673 133.09 250.507 133.411 252.229 133.805C251.712 135.462 251.068 137.195 250.309 138.971C249.765 137.938 249.189 136.896 248.583 135.849ZM238.029 125.569C239.211 126.85 240.395 128.28 241.559 129.831C240.386 129.776 239.198 129.747 238 129.747C236.813 129.747 235.634 129.775 234.468 129.83C235.634 128.293 236.828 126.864 238.029 125.569ZM227.407 135.867C226.814 136.895 226.249 137.931 225.713 138.969C224.967 137.199 224.328 135.458 223.806 133.777C225.518 133.394 227.344 133.081 229.246 132.844C228.616 133.827 228.001 134.835 227.407 135.866V135.867ZM229.301 151.183C227.335 150.964 225.482 150.667 223.771 150.295C224.301 148.584 224.954 146.806 225.716 144.998C226.253 146.035 226.82 147.072 227.417 148.102H227.417C228.025 149.152 228.654 150.181 229.301 151.183ZM238.1 158.456C236.885 157.145 235.673 155.696 234.49 154.136C235.638 154.181 236.81 154.204 238 154.204C239.223 154.204 240.432 154.177 241.622 154.124C240.453 155.711 239.274 157.163 238.1 158.456ZM250.333 144.905C251.135 146.733 251.811 148.502 252.348 150.184C250.609 150.58 248.73 150.9 246.751 151.138C247.374 150.151 247.989 149.132 248.593 148.084C249.204 147.025 249.785 145.963 250.333 144.905ZM246.373 146.804C245.435 148.43 244.472 149.983 243.495 151.448C241.714 151.575 239.875 151.641 238 151.641C236.133 151.641 234.317 151.583 232.568 151.469C231.551 149.985 230.567 148.428 229.635 146.818H229.635C228.706 145.213 227.85 143.594 227.075 141.984C227.85 140.37 228.703 138.749 229.627 137.147L229.627 137.147C230.554 135.54 231.529 133.991 232.536 132.516C234.321 132.381 236.151 132.31 238 132.31H238C239.858 132.31 241.69 132.381 243.474 132.517C244.466 133.982 245.434 135.526 246.365 137.133C247.305 138.758 248.17 140.368 248.951 141.947C248.172 143.553 247.31 145.18 246.373 146.804ZM251.66 118.181C253.67 119.34 254.451 124.013 253.189 130.14C253.108 130.531 253.017 130.93 252.919 131.333C250.43 130.759 247.727 130.331 244.897 130.066C243.248 127.718 241.539 125.584 239.825 123.736C240.286 123.292 240.746 122.869 241.205 122.47C245.634 118.615 249.774 117.093 251.66 118.181ZM238 136.564C240.959 136.564 243.358 138.963 243.358 141.922C243.358 144.881 240.959 147.28 238 147.28C235.041 147.28 232.642 144.881 232.642 141.922C232.642 138.963 235.041 136.564 238 136.564Z" fill="#00D8FF"/>
<path d="M344.85 152.418C346.926 152.206 348.501 150.447 348.429 148.336C348.358 146.225 346.568 144.536 344.421 144.536H344.278C342.058 144.606 340.341 146.436 340.412 148.617C340.484 149.673 340.913 150.588 341.557 151.221C339.124 155.936 335.402 159.385 329.818 162.27C326.025 164.241 322.088 164.944 318.151 164.452C314.93 164.03 312.424 162.622 310.849 160.3C308.559 156.851 308.344 153.121 310.277 149.391C311.637 146.717 313.784 144.747 315.144 143.761C314.858 142.846 314.429 141.298 314.214 140.172C303.835 147.562 304.908 157.555 308.058 162.27C310.42 165.789 315.216 167.971 320.513 167.971C321.944 167.971 323.376 167.83 324.808 167.478C333.97 165.719 340.913 160.37 344.85 152.418ZM357.449 143.691C352.008 137.428 343.991 133.979 334.829 133.979H333.684C333.04 132.713 331.679 131.868 330.176 131.868H330.033C327.814 131.938 326.096 133.768 326.168 135.95C326.239 138.061 328.029 139.75 330.176 139.75H330.319C331.894 139.68 333.254 138.694 333.827 137.357H335.115C340.556 137.357 345.709 138.905 350.362 141.932C353.941 144.254 356.518 147.28 357.95 150.94C359.166 153.895 359.095 156.781 357.806 159.244C355.802 162.974 352.438 165.015 348 165.015C345.137 165.015 342.417 164.17 340.985 163.537C340.198 164.241 338.766 165.366 337.764 166.07C340.842 167.478 343.991 168.252 346.998 168.252C353.869 168.252 358.952 164.522 360.884 160.792C362.96 156.71 362.817 149.673 357.449 143.691ZM321.086 153.614C321.157 155.725 322.947 157.414 325.094 157.414H325.237C327.456 157.344 329.174 155.514 329.103 153.332C329.031 151.221 327.241 149.532 325.094 149.532H324.951C324.808 149.532 324.593 149.532 324.45 149.602C321.515 144.817 320.298 139.609 320.728 133.979C321.014 129.757 322.446 126.097 324.951 123.071C327.027 120.467 331.035 119.2 333.755 119.13C341.343 118.989 344.564 128.279 344.779 132.009C345.709 132.22 347.284 132.712 348.358 133.064C347.499 121.664 340.341 115.752 333.469 115.752C327.027 115.752 321.086 120.326 318.723 127.082C315.431 136.09 317.578 144.747 321.587 151.573C321.229 152.066 321.014 152.84 321.086 153.614V153.614Z" fill="#764ABC"/>
<path d="M54 219.953C46 219.953 41 223.953 39 231.953C42 227.953 45.5 226.453 49.5 227.453C51.7822 228.024 53.4134 229.679 55.219 231.512C58.1603 234.498 61.5646 237.953 69 237.953C77 237.953 82 233.953 84 225.953C81 229.953 77.5 231.453 73.5 230.453C71.2178 229.883 69.5866 228.227 67.781 226.394C64.8397 223.409 61.4354 219.953 54 219.953ZM39 237.953C31 237.953 26 241.953 24 249.953C27 245.953 30.5 244.453 34.5 245.453C36.7822 246.024 38.4134 247.679 40.219 249.512C43.1603 252.498 46.5646 255.953 54 255.953C62 255.953 67 251.953 69 243.953C66 247.953 62.5 249.453 58.5 248.453C56.2178 247.883 54.5866 246.227 52.781 244.394C49.8397 241.409 46.4354 237.953 39 237.953Z" fill="url(#paint1_linear_114_968)"/>
<path d="M144.035 208.016C143.906 208.028 143.496 208.069 143.126 208.098C134.604 208.866 126.622 213.464 121.566 220.53C118.751 224.459 116.95 228.916 116.27 233.637C116.029 235.285 116 235.772 116 238.006C116 240.24 116.029 240.727 116.27 242.375C117.9 253.64 125.918 263.105 136.792 266.612C138.739 267.239 140.792 267.667 143.126 267.925C144.035 268.025 147.965 268.025 148.874 267.925C152.903 267.48 156.317 266.483 159.683 264.764C160.199 264.501 160.299 264.43 160.229 264.372C160.182 264.336 157.982 261.387 155.343 257.821L150.545 251.341L144.534 242.445C141.226 237.554 138.504 233.555 138.481 233.555C138.457 233.549 138.434 237.502 138.422 242.328C138.405 250.778 138.399 251.118 138.293 251.318C138.141 251.605 138.023 251.722 137.777 251.851C137.589 251.945 137.425 251.963 136.54 251.963H135.525L135.255 251.793C135.079 251.681 134.95 251.535 134.862 251.365L134.739 251.101L134.751 239.343L134.768 227.579L134.95 227.351C135.044 227.227 135.243 227.069 135.384 226.993C135.625 226.876 135.718 226.864 136.733 226.864C137.93 226.864 138.129 226.911 138.44 227.251C138.528 227.345 141.783 232.247 145.677 238.152C149.572 244.058 154.897 252.121 157.513 256.079L162.264 263.275L162.504 263.117C164.633 261.733 166.886 259.762 168.669 257.71C172.463 253.353 174.909 248.04 175.73 242.375C175.971 240.727 176 240.24 176 238.006C176 235.772 175.971 235.285 175.73 233.637C174.1 222.372 166.082 212.907 155.208 209.4C153.29 208.778 151.249 208.35 148.962 208.092C148.399 208.034 144.522 207.969 144.035 208.016ZM156.317 226.16C156.598 226.301 156.827 226.571 156.909 226.852C156.956 227.005 156.968 230.265 156.956 237.613L156.938 248.157L155.079 245.307L153.214 242.457V234.792C153.214 229.837 153.238 227.051 153.273 226.917C153.367 226.588 153.572 226.33 153.853 226.178C154.094 226.055 154.182 226.043 155.103 226.043C155.971 226.043 156.123 226.055 156.317 226.16Z" fill="black"/>
<g clip-path="url(#clip1_114_968)">
<path fill-rule="evenodd" clip-rule="evenodd" d="M208.703 208.703H267.297V267.297H208.703V208.703Z" fill="#F7DF1E"/>
<path fill-rule="evenodd" clip-rule="evenodd" d="M224.11 257.668L228.594 254.955C229.459 256.488 230.246 257.786 232.133 257.786C233.942 257.786 235.083 257.078 235.083 254.325V235.603H240.589V254.403C240.589 260.106 237.246 262.702 232.369 262.702C227.964 262.702 225.407 260.421 224.109 257.668" fill="black"/>
<path fill-rule="evenodd" clip-rule="evenodd" d="M243.58 257.078L248.064 254.482C249.244 256.41 250.778 257.826 253.492 257.826C255.773 257.826 257.228 256.685 257.228 255.112C257.228 253.224 255.734 252.555 253.216 251.454L251.84 250.864C247.867 249.173 245.232 247.049 245.232 242.565C245.232 238.435 248.379 235.289 253.295 235.289C256.796 235.289 259.313 236.508 261.122 239.694L256.835 242.447C255.891 240.756 254.868 240.087 253.295 240.087C251.683 240.087 250.66 241.11 250.66 242.447C250.66 244.099 251.683 244.768 254.042 245.79L255.419 246.38C260.099 248.386 262.735 250.431 262.735 255.033C262.735 259.989 258.841 262.703 253.61 262.703C248.497 262.703 245.193 260.264 243.58 257.078" fill="black"/>
</g>
<g clip-path="url(#clip2_114_968)">
<path d="M322.22 254.401C322.22 254.401 319.927 255.735 323.852 256.186C328.607 256.728 331.037 256.65 336.276 255.659C336.276 255.659 337.654 256.523 339.577 257.271C327.832 262.305 312.995 256.979 322.22 254.401Z" fill="#5382A1"/>
<path d="M320.785 247.832C320.785 247.832 318.214 249.736 322.141 250.142C327.22 250.666 331.231 250.709 338.172 249.372C338.172 249.372 339.132 250.346 340.641 250.878C326.44 255.031 310.622 251.205 320.785 247.832Z" fill="#5382A1"/>
<path d="M332.885 236.689C335.779 240.021 332.124 243.019 332.124 243.019C332.124 243.019 339.473 239.226 336.098 234.475C332.946 230.045 330.529 227.844 343.615 220.255C343.615 220.255 323.074 225.385 332.885 236.689Z" fill="#E76F00"/>
<path d="M348.419 259.26C348.419 259.26 350.116 260.658 346.551 261.74C339.771 263.794 318.333 264.414 312.377 261.822C310.236 260.89 314.251 259.598 315.514 259.327C316.831 259.041 317.584 259.094 317.584 259.094C315.203 257.417 302.195 262.387 310.976 263.811C334.924 267.695 354.631 262.062 348.419 259.26Z" fill="#5382A1"/>
<path d="M323.323 241.026C323.323 241.026 312.418 243.616 319.462 244.557C322.435 244.955 328.364 244.865 333.886 244.402C338.399 244.021 342.93 243.212 342.93 243.212C342.93 243.212 341.339 243.893 340.188 244.68C329.114 247.592 307.722 246.237 313.88 243.258C319.088 240.74 323.323 241.026 323.323 241.026Z" fill="#5382A1"/>
<path d="M342.885 251.96C354.142 246.111 348.937 240.49 345.304 241.247C344.414 241.432 344.017 241.593 344.017 241.593C344.017 241.593 344.348 241.075 344.979 240.851C352.166 238.324 357.693 248.303 342.659 252.255C342.659 252.255 342.833 252.1 342.885 251.96Z" fill="#5382A1"/>
<path d="M336.098 208C336.098 208 342.333 214.236 330.185 223.826C320.445 231.519 327.964 235.905 330.181 240.916C324.496 235.786 320.323 231.27 323.122 227.067C327.231 220.897 338.614 217.906 336.098 208Z" fill="#E76F00"/>
<path d="M324.429 267.811C335.234 268.503 351.827 267.428 352.22 262.315C352.22 262.315 351.465 264.253 343.29 265.792C334.068 267.528 322.693 267.325 315.946 266.213C315.947 266.213 317.327 267.356 324.429 267.811Z" fill="#5382A1"/>
</g>
<path d="M421.779 234.74V241.791L421.011 242.41V236.544H419.564L421.779 234.74ZM448.43 233.664C449.074 233.664 449.671 233.761 450.223 233.955C450.753 234.138 451.211 234.345 451.596 234.573L451.663 234.614L450.866 236.131C450.794 236.071 450.691 236.003 450.558 235.927L450.483 235.884L450.402 235.84L450.315 235.794C450.07 235.661 449.778 235.549 449.441 235.457C449.104 235.354 448.757 235.303 448.4 235.303C447.439 235.303 446.959 235.574 446.959 236.115C446.959 236.432 447.133 236.657 447.48 236.79L447.559 236.818L447.643 236.847L447.733 236.877L447.827 236.907L447.926 236.938L448.03 236.969C448.048 236.974 448.066 236.979 448.084 236.984L448.195 237.016L448.312 237.048L448.434 237.081L448.56 237.114L448.692 237.148L448.899 237.199L449.043 237.234C449.646 237.387 450.167 237.561 450.606 237.755C451.036 237.941 451.369 238.188 451.602 238.496L451.632 238.536C451.877 238.853 452 239.272 452 239.793C452 240.426 451.837 240.937 451.51 241.325C451.193 241.703 450.774 241.978 450.253 242.152C449.732 242.315 449.171 242.397 448.568 242.397C447.873 242.397 447.184 242.3 446.5 242.106C445.848 241.921 445.266 241.672 444.753 241.357L444.676 241.309L445.504 239.701C445.637 239.833 445.856 239.982 446.163 240.145C446.479 240.308 446.847 240.446 447.266 240.559C447.685 240.671 448.129 240.727 448.599 240.727C449.538 240.727 450.008 240.477 450.008 239.976C450.008 239.639 449.789 239.399 449.349 239.256L449.244 239.219L449.133 239.182L449.017 239.143L448.895 239.105L448.768 239.065L448.636 239.025C448.614 239.018 448.591 239.012 448.568 239.005L448.428 238.964L448.283 238.923L448.132 238.88L447.976 238.838L447.733 238.773L447.649 238.751C446.77 238.526 446.117 238.24 445.688 237.893C445.269 237.535 445.06 237.025 445.06 236.361C445.06 235.768 445.208 235.273 445.504 234.874C445.81 234.476 446.219 234.175 446.73 233.97C447.25 233.766 447.817 233.664 448.43 233.664ZM434.222 233.679C434.87 233.679 435.462 233.797 435.997 234.034L436.061 234.062C436.612 234.308 437.082 234.64 437.47 235.058C437.868 235.467 438.175 235.932 438.389 236.453C438.604 236.973 438.711 237.505 438.711 238.046C438.711 238.608 438.599 239.149 438.374 239.67C438.149 240.181 437.832 240.64 437.424 241.049C437.025 241.447 436.551 241.764 435.999 241.999C435.448 242.234 434.845 242.351 434.191 242.351C433.517 242.351 432.904 242.234 432.353 241.999C431.801 241.754 431.326 241.427 430.928 241.018C430.529 240.599 430.223 240.13 430.008 239.609C429.794 239.088 429.687 238.552 429.687 238C429.687 237.438 429.799 236.897 430.024 236.376C430.238 235.879 430.537 235.437 430.919 235.052L430.974 234.997C431.382 234.588 431.862 234.267 432.414 234.032C432.965 233.797 433.568 233.679 434.222 233.679ZM397.255 233.725L400.978 242.29H399.017L398.159 240.283H394.834L393.976 242.29H392L395.738 233.725H397.255ZM408.222 233.725L410.581 236.759L412.941 233.725H414.948L411.562 238.061L414.84 242.29H412.833L410.581 239.379L408.344 242.29H406.307L409.601 238.061L406.199 233.725H408.222ZM423.184 233.686V239.417H424.671L422.417 241.267V234.22L423.184 233.686ZM434.191 235.334C433.63 235.334 433.149 235.467 432.751 235.732C432.363 235.998 432.066 236.335 431.862 236.744C431.658 237.152 431.556 237.576 431.556 238.015C431.556 238.475 431.663 238.914 431.878 239.333C432.092 239.741 432.393 240.073 432.781 240.329C433.18 240.584 433.655 240.712 434.206 240.712C434.768 240.712 435.243 240.579 435.631 240.313C436.02 240.038 436.316 239.696 436.52 239.287C436.724 238.868 436.827 238.439 436.827 238C436.827 237.54 436.719 237.106 436.505 236.698C436.29 236.289 435.984 235.962 435.585 235.717C435.197 235.462 434.733 235.334 434.191 235.334ZM396.504 235.978L395.248 238.674H397.715L396.504 235.978Z" fill="#5A29E4"/>
<g clip-path="url(#clip3_114_968)">
<g clip-path="url(#clip4_114_968)">
<g clip-path="url(#clip5_114_968)">
<path fill-rule="evenodd" clip-rule="evenodd" d="M167.865 332.531C167.811 332.542 167.757 332.661 167.757 332.725C167.746 333.158 167.735 334.304 167.735 335.083C167.735 335.105 167.768 335.148 167.8 335.148C167.962 335.159 168.352 335.169 168.687 335.169C169.152 335.169 169.422 335.105 169.574 335.04C169.963 334.845 170.147 334.423 170.147 333.958C170.147 332.909 169.411 332.509 168.319 332.509C168.243 332.498 168.027 332.498 167.865 332.531ZM170.655 337.365C170.655 336.294 169.866 335.699 168.438 335.699C168.373 335.699 167.919 335.689 167.811 335.71C167.778 335.721 167.735 335.743 167.735 335.775C167.735 336.543 167.724 337.765 167.757 338.241C167.778 338.446 167.93 338.738 168.114 338.825C168.308 338.933 168.752 338.954 169.054 338.954C169.909 338.954 170.655 338.479 170.655 337.365ZM165.659 331.936C165.767 331.936 166.091 331.968 166.924 331.968C167.713 331.968 168.341 331.947 169.109 331.947C170.049 331.947 171.347 332.282 171.347 333.688C171.347 334.38 170.86 334.932 170.222 335.202C170.19 335.213 170.19 335.234 170.222 335.245C171.131 335.472 171.931 336.035 171.931 337.094C171.931 338.133 171.282 338.792 170.341 339.203C169.768 339.452 169.054 339.538 168.33 339.538C167.778 339.538 166.297 339.474 165.475 339.495C165.388 339.463 165.551 339.073 165.626 339.009C165.821 338.998 165.972 338.987 166.178 338.922C166.47 338.846 166.502 338.76 166.546 338.316C166.567 337.938 166.567 336.597 166.567 335.645C166.567 334.337 166.578 333.45 166.567 333.017C166.556 332.682 166.437 332.574 166.2 332.509C166.016 332.477 165.713 332.433 165.464 332.401C165.41 332.347 165.594 331.979 165.659 331.936ZM159.419 338.663C159.679 338.868 160.187 338.954 160.641 338.954C161.225 338.954 161.809 338.846 162.371 338.338C162.944 337.819 163.345 337.019 163.345 335.743C163.345 334.521 162.879 333.526 161.928 332.942C161.387 332.606 160.695 332.466 159.895 332.466C159.657 332.466 159.43 332.477 159.289 332.542C159.257 332.563 159.181 332.661 159.181 332.715C159.159 332.931 159.159 334.596 159.159 335.57C159.159 336.575 159.159 337.981 159.181 338.143C159.181 338.306 159.257 338.554 159.419 338.663ZM156.964 331.936C157.17 331.936 157.959 331.968 158.337 331.968C159.019 331.968 159.505 331.936 160.792 331.936C161.874 331.936 162.782 332.228 163.431 332.779C164.22 333.461 164.631 334.402 164.631 335.548C164.631 337.181 163.885 338.122 163.139 338.663C162.393 339.214 161.42 339.538 160.035 339.538C159.3 339.538 158.035 339.517 156.986 339.506H156.975C156.921 339.409 157.061 339.03 157.148 339.019C157.429 338.987 157.505 338.976 157.645 338.922C157.872 338.836 157.916 338.717 157.948 338.316C157.981 337.57 157.97 336.673 157.97 335.656C157.97 334.932 157.981 333.515 157.959 333.061C157.927 332.682 157.764 332.585 157.44 332.52C157.278 332.488 157.061 332.444 156.759 332.412C156.715 332.336 156.91 332.001 156.964 331.936Z" fill="#8E714E"/>
<path fill-rule="evenodd" clip-rule="evenodd" d="M143.879 339.084C143.609 339.052 143.414 339.009 143.176 338.9C143.144 338.879 143.089 338.771 143.089 338.727C143.068 338.349 143.068 337.267 143.068 336.543C143.068 335.959 142.971 335.451 142.722 335.094C142.43 334.683 142.008 334.445 141.467 334.445C140.991 334.445 140.353 334.769 139.824 335.224C139.813 335.234 139.726 335.31 139.737 335.191C139.737 335.072 139.759 334.834 139.769 334.672C139.78 334.521 139.694 334.445 139.694 334.445C139.348 334.618 138.374 334.845 138.018 334.877C137.758 334.932 137.693 335.18 137.964 335.267H137.974C138.266 335.353 138.461 335.451 138.612 335.548C138.72 335.634 138.71 335.753 138.71 335.851C138.72 336.662 138.72 337.905 138.688 338.587C138.677 338.857 138.602 338.954 138.407 338.998L138.428 338.987C138.277 339.019 138.158 339.052 137.974 339.073C137.909 339.138 137.909 339.484 137.974 339.56C138.093 339.56 138.72 339.528 139.24 339.528C139.953 339.528 140.321 339.56 140.505 339.56C140.581 339.474 140.602 339.149 140.559 339.073C140.353 339.063 140.202 339.041 140.061 338.998C139.867 338.954 139.813 338.857 139.802 338.63C139.78 338.057 139.78 336.846 139.78 336.024C139.78 335.797 139.845 335.688 139.91 335.624C140.159 335.407 140.559 335.256 140.916 335.256C141.262 335.256 141.489 335.364 141.662 335.505C141.9 335.699 141.976 335.981 142.008 336.186C142.062 336.651 142.04 337.57 142.04 338.37C142.04 338.803 142.008 338.911 141.846 338.965C141.77 338.998 141.575 339.041 141.348 339.063C141.273 339.138 141.294 339.474 141.348 339.549C141.662 339.549 142.03 339.517 142.57 339.517C143.241 339.517 143.673 339.549 143.846 339.549C143.9 339.484 143.922 339.171 143.879 339.084H143.879ZM146.874 334.953C146.301 334.953 145.944 335.397 145.944 336.089C145.944 336.792 146.258 337.603 147.145 337.603C147.296 337.603 147.577 337.538 147.707 337.386C147.913 337.192 148.053 336.802 148.053 336.391C148.053 335.494 147.61 334.953 146.874 334.953ZM146.799 339.733C146.582 339.733 146.431 339.798 146.334 339.852C145.879 340.144 145.674 340.425 145.674 340.76C145.674 341.074 145.793 341.323 146.053 341.539C146.366 341.809 146.799 341.939 147.35 341.939C148.453 341.939 148.94 341.344 148.94 340.76C148.94 340.349 148.734 340.079 148.313 339.928C148.01 339.798 147.458 339.733 146.799 339.733ZM146.874 342.545C146.215 342.545 145.739 342.404 145.328 342.091C144.928 341.788 144.755 341.334 144.755 341.02C144.755 340.933 144.776 340.696 144.971 340.479C145.09 340.349 145.35 340.101 145.966 339.679C145.988 339.668 145.998 339.657 145.998 339.636C145.998 339.614 145.977 339.592 145.955 339.582C145.447 339.387 145.296 339.073 145.252 338.9V338.879C145.242 338.814 145.22 338.749 145.317 338.684C145.393 338.63 145.501 338.565 145.62 338.489C145.804 338.381 145.998 338.262 146.117 338.165C146.139 338.143 146.139 338.122 146.139 338.1C146.139 338.078 146.117 338.057 146.096 338.046C145.339 337.797 144.96 337.235 144.96 336.391C144.96 335.84 145.209 335.342 145.652 335.029C145.955 334.791 146.712 334.499 147.21 334.499H147.242C147.75 334.51 148.032 334.618 148.432 334.759C148.648 334.834 148.853 334.867 149.135 334.867C149.556 334.867 149.74 334.737 149.892 334.586C149.902 334.607 149.924 334.661 149.935 334.802C149.946 334.942 149.902 335.148 149.794 335.299C149.708 335.418 149.513 335.505 149.318 335.505H149.264C149.07 335.483 148.983 335.461 148.983 335.461L148.94 335.483C148.929 335.505 148.94 335.526 148.951 335.559L148.962 335.58C148.983 335.678 149.026 335.97 149.026 336.045C149.026 336.932 148.67 337.321 148.291 337.613C147.923 337.884 147.502 338.057 147.026 338.1C147.015 338.1 146.972 338.1 146.874 338.111C146.82 338.111 146.745 338.122 146.734 338.122H146.723C146.636 338.143 146.42 338.251 146.42 338.435C146.42 338.598 146.518 338.792 146.983 338.825C147.08 338.836 147.177 338.836 147.285 338.846C147.902 338.89 148.67 338.944 149.026 339.063C149.524 339.246 149.838 339.69 149.838 340.22C149.838 341.02 149.264 341.766 148.313 342.231C147.848 342.437 147.383 342.545 146.874 342.545ZM153.039 335.007C152.811 335.007 152.606 335.061 152.455 335.169C152.033 335.429 151.817 335.948 151.817 336.705C151.817 338.122 152.53 339.117 153.547 339.117C153.85 339.117 154.088 339.03 154.293 338.857C154.607 338.598 154.769 338.078 154.769 337.354C154.769 335.948 154.066 335.007 153.039 335.007ZM153.233 339.636C151.395 339.636 150.735 338.284 150.735 337.019C150.735 336.132 151.092 335.451 151.806 334.964C152.314 334.65 152.92 334.477 153.46 334.477C154.866 334.477 155.85 335.483 155.85 336.932C155.85 337.916 155.461 338.695 154.715 339.171C154.358 339.409 153.741 339.636 153.233 339.636H153.233ZM133.962 335.007C133.735 335.007 133.53 335.061 133.378 335.169C132.957 335.429 132.74 335.948 132.74 336.705C132.74 338.122 133.454 339.117 134.47 339.117C134.773 339.117 135.011 339.03 135.217 338.857C135.53 338.598 135.693 338.078 135.693 337.354C135.693 335.948 135 335.007 133.962 335.007ZM134.157 339.636C132.318 339.636 131.659 338.284 131.659 337.019C131.659 336.132 132.016 335.451 132.729 334.964C133.238 334.65 133.843 334.477 134.384 334.477C135.79 334.477 136.774 335.483 136.774 336.932C136.774 337.916 136.385 338.695 135.638 339.171C135.292 339.409 134.676 339.636 134.157 339.636ZM121.796 339.528C121.775 339.495 121.753 339.398 121.764 339.279C121.764 339.192 121.785 339.138 121.796 339.117C122.023 339.084 122.142 339.052 122.272 339.019C122.488 338.965 122.575 338.846 122.586 338.576C122.618 337.927 122.618 336.694 122.607 335.84V335.818C122.607 335.721 122.607 335.602 122.488 335.515C122.315 335.407 122.11 335.31 121.839 335.234C121.742 335.202 121.677 335.148 121.688 335.083C121.688 335.018 121.753 334.942 121.894 334.921C122.25 334.888 123.18 334.661 123.548 334.499C123.57 334.521 123.602 334.586 123.602 334.672L123.591 334.791C123.581 334.91 123.57 335.051 123.57 335.191C123.57 335.234 123.613 335.267 123.656 335.267C123.678 335.267 123.7 335.256 123.721 335.245C124.413 334.704 125.04 334.51 125.365 334.51C125.895 334.51 126.306 334.759 126.619 335.278C126.641 335.31 126.663 335.321 126.695 335.321C126.717 335.321 126.749 335.31 126.76 335.288C127.398 334.802 128.036 334.51 128.458 334.51C129.463 334.51 130.058 335.256 130.058 336.521C130.058 336.878 130.058 337.343 130.047 337.765C130.047 338.143 130.037 338.489 130.037 338.738C130.037 338.792 130.112 338.965 130.231 338.998C130.383 339.073 130.588 339.106 130.859 339.149H130.869C130.891 339.225 130.848 339.506 130.804 339.56C130.74 339.56 130.642 339.56 130.534 339.549C130.329 339.538 130.037 339.528 129.712 339.528C129.042 339.528 128.696 339.538 128.36 339.56C128.339 339.474 128.328 339.214 128.36 339.149C128.555 339.117 128.652 339.084 128.771 339.052C128.988 338.987 129.042 338.89 129.053 338.608C129.053 338.403 129.096 336.651 129.031 336.229C128.966 335.797 128.642 335.288 127.928 335.288C127.657 335.288 127.236 335.397 126.825 335.71C126.803 335.732 126.782 335.786 126.782 335.818V335.829C126.825 336.056 126.825 336.316 126.825 336.716V337.419C126.825 337.905 126.814 338.36 126.825 338.706C126.825 338.944 126.965 338.998 127.084 339.041C127.149 339.052 127.192 339.063 127.247 339.073C127.344 339.095 127.441 339.117 127.593 339.149C127.614 339.192 127.614 339.333 127.582 339.452C127.571 339.517 127.549 339.549 127.539 339.56C127.171 339.549 126.792 339.538 126.241 339.538C126.079 339.538 125.797 339.549 125.56 339.549C125.365 339.549 125.181 339.56 125.073 339.56C125.062 339.538 125.04 339.463 125.04 339.344C125.04 339.246 125.062 339.171 125.084 339.149C125.138 339.138 125.181 339.128 125.235 339.128C125.365 339.106 125.473 339.084 125.581 339.063C125.765 339.009 125.83 338.911 125.841 338.673C125.873 338.133 125.906 336.586 125.83 336.197C125.7 335.57 125.343 335.256 124.77 335.256C124.435 335.256 124.013 335.418 123.667 335.678C123.613 335.721 123.57 335.829 123.57 335.926V336.565C123.57 337.343 123.57 338.316 123.581 338.738C123.591 338.868 123.635 339.019 123.883 339.073C123.937 339.084 124.024 339.106 124.132 339.117L124.327 339.149C124.348 339.214 124.338 339.474 124.294 339.56C124.186 339.56 124.056 339.549 123.905 339.549C123.678 339.538 123.386 339.528 123.061 339.528C122.683 339.528 122.413 339.538 122.196 339.549C122.045 339.528 121.926 339.528 121.796 339.528Z" fill="#442D22"/>
<g clip-path="url(#clip6_114_968)">
<path fill-rule="evenodd" clip-rule="evenodd" d="M116.108 342.123L115.664 341.972C115.664 341.972 115.719 339.711 114.908 339.549C114.367 338.922 114.994 312.946 116.941 339.463C116.941 339.463 116.27 339.798 116.151 340.371C116.021 340.933 116.108 342.123 116.108 342.123Z" fill="white"/>
<path fill-rule="evenodd" clip-rule="evenodd" d="M116.108 342.123L115.664 341.972C115.664 341.972 115.719 339.711 114.908 339.549C114.367 338.922 114.994 312.946 116.941 339.463C116.941 339.463 116.27 339.798 116.151 340.371C116.021 340.933 116.108 342.123 116.108 342.123Z" fill="#A6A385"/>
<path fill-rule="evenodd" clip-rule="evenodd" d="M116.346 339.939C116.346 339.939 120.228 337.386 119.32 332.077C118.444 328.216 116.378 326.951 116.151 326.464C115.902 326.118 115.664 325.512 115.664 325.512L115.827 336.251C115.827 336.262 115.491 339.538 116.346 339.939Z" fill="white"/>
<path fill-rule="evenodd" clip-rule="evenodd" d="M116.346 339.939C116.346 339.939 120.228 337.386 119.32 332.077C118.444 328.216 116.378 326.951 116.151 326.464C115.902 326.118 115.664 325.512 115.664 325.512L115.827 336.251C115.827 336.262 115.491 339.538 116.346 339.939Z" fill="#499D4A"/>
<path fill-rule="evenodd" clip-rule="evenodd" d="M115.437 340.079C115.437 340.079 111.793 337.592 112.009 333.212C112.215 328.832 114.789 326.68 115.286 326.291C115.61 325.945 115.621 325.815 115.643 325.469C115.87 325.956 115.827 332.747 115.859 333.547C115.956 336.629 115.686 339.495 115.437 340.079Z" fill="white"/>
<path fill-rule="evenodd" clip-rule="evenodd" d="M115.437 340.079C115.437 340.079 111.793 337.592 112.009 333.212C112.215 328.832 114.789 326.68 115.286 326.291C115.61 325.945 115.621 325.815 115.643 325.469C115.87 325.956 115.827 332.747 115.859 333.547C115.956 336.629 115.686 339.495 115.437 340.079Z" fill="#58AA50"/>
</g>
</g>
</g>
</g>
<g clip-path="url(#clip7_114_968)">
<path fill-rule="evenodd" clip-rule="evenodd" d="M237.674 352.342C237.471 352.342 237.281 352.288 237.105 352.193L235.301 351.121C235.03 350.972 235.165 350.918 235.247 350.891C235.613 350.769 235.681 350.742 236.061 350.525C236.101 350.498 236.155 350.511 236.196 350.538L237.58 351.366C237.634 351.393 237.702 351.393 237.742 351.366L243.154 348.233C243.208 348.206 243.235 348.151 243.235 348.083V341.831C243.235 341.763 243.208 341.709 243.154 341.682L237.742 338.563C237.688 338.536 237.62 338.536 237.58 338.563L232.168 341.682C232.114 341.709 232.087 341.777 232.087 341.831V348.083C232.087 348.138 232.114 348.206 232.168 348.233L233.646 349.087C234.447 349.494 234.948 349.019 234.948 348.545V342.374C234.948 342.292 235.016 342.211 235.111 342.211H235.803C235.884 342.211 235.966 342.279 235.966 342.374V348.545C235.966 349.616 235.382 350.24 234.365 350.24C234.053 350.24 233.809 350.24 233.118 349.901L231.693 349.087C231.341 348.884 231.124 348.504 231.124 348.097V341.845C231.124 341.438 231.341 341.058 231.693 340.855L237.105 337.722C237.444 337.532 237.905 337.532 238.244 337.722L243.655 340.855C244.008 341.058 244.225 341.438 244.225 341.845V348.097C244.225 348.504 244.008 348.884 243.655 349.087L238.244 352.22C238.068 352.301 237.864 352.342 237.674 352.342ZM239.343 348.043C236.969 348.043 236.481 346.958 236.481 346.036C236.481 345.954 236.549 345.873 236.644 345.873H237.349C237.43 345.873 237.498 345.927 237.498 346.008C237.607 346.727 237.919 347.08 239.356 347.08C240.495 347.08 240.984 346.822 240.984 346.212C240.984 345.859 240.848 345.602 239.071 345.425C237.593 345.276 236.671 344.951 236.671 343.771C236.671 342.672 237.593 342.021 239.139 342.021C240.875 342.021 241.73 342.618 241.838 343.92C241.838 343.961 241.825 344.001 241.797 344.042C241.77 344.069 241.73 344.096 241.689 344.096H240.984C240.916 344.096 240.848 344.042 240.835 343.974C240.672 343.228 240.251 342.984 239.139 342.984C237.891 342.984 237.742 343.418 237.742 343.744C237.742 344.137 237.919 344.259 239.6 344.476C241.269 344.693 242.055 345.005 242.055 346.171C242.042 347.365 241.065 348.043 239.343 348.043Z" fill="#539E43"/>
<path fill-rule="evenodd" clip-rule="evenodd" d="M220.884 327.889C220.884 327.645 220.749 327.414 220.532 327.292L214.781 323.983C214.686 323.929 214.578 323.902 214.469 323.888H214.415C214.307 323.888 214.198 323.929 214.103 323.983L208.353 327.292C208.136 327.414 208 327.645 208 327.889L208.014 336.786C208.014 336.908 208.081 337.03 208.19 337.084C208.298 337.152 208.434 337.152 208.529 337.084L211.947 335.131C212.164 335.009 212.299 334.779 212.299 334.535V330.371C212.299 330.127 212.435 329.896 212.652 329.774L214.103 328.933C214.212 328.866 214.334 328.838 214.456 328.838C214.578 328.838 214.7 328.866 214.795 328.933L216.246 329.774C216.463 329.896 216.599 330.127 216.599 330.371V334.535C216.599 334.779 216.734 335.009 216.951 335.131L220.369 337.084C220.477 337.152 220.613 337.152 220.722 337.084C220.83 337.03 220.898 336.908 220.898 336.786L220.884 327.889Z" fill="#333333"/>
<path fill-rule="evenodd" clip-rule="evenodd" d="M248.524 315.642C248.416 315.588 248.28 315.588 248.185 315.642C248.077 315.71 248.009 315.819 248.009 315.941V324.756C248.009 324.838 247.968 324.919 247.887 324.973C247.806 325.014 247.724 325.014 247.643 324.973L246.205 324.146C245.988 324.024 245.73 324.024 245.513 324.146L239.763 327.469C239.546 327.591 239.41 327.821 239.41 328.065V334.697C239.41 334.942 239.546 335.172 239.763 335.294L245.513 338.617C245.73 338.739 245.988 338.739 246.205 338.617L251.956 335.294C252.173 335.172 252.308 334.942 252.308 334.697V318.165C252.308 317.907 252.173 317.677 251.956 317.555L248.524 315.642ZM247.995 332.514C247.995 332.582 247.968 332.636 247.914 332.663L245.947 333.802C245.893 333.829 245.825 333.829 245.771 333.802L243.805 332.663C243.75 332.636 243.723 332.568 243.723 332.514V330.235C243.723 330.168 243.75 330.113 243.805 330.086L245.771 328.947C245.825 328.92 245.893 328.92 245.947 328.947L247.914 330.086C247.968 330.113 247.995 330.181 247.995 330.235V332.514Z" fill="#333333"/>
<path fill-rule="evenodd" clip-rule="evenodd" d="M267.661 330.181C267.878 330.059 268 329.829 268 329.584V327.97C268 327.726 267.864 327.496 267.661 327.374L261.951 324.065C261.734 323.942 261.477 323.942 261.26 324.065L255.509 327.387C255.292 327.509 255.156 327.74 255.156 327.984V334.616C255.156 334.86 255.292 335.091 255.509 335.213L261.219 338.468C261.436 338.59 261.694 338.59 261.897 338.468L265.355 336.542C265.464 336.488 265.532 336.366 265.532 336.244C265.532 336.121 265.464 335.999 265.355 335.945L259.578 332.622C259.469 332.555 259.401 332.446 259.401 332.324V330.249C259.401 330.127 259.469 330.005 259.578 329.951L261.382 328.92C261.49 328.852 261.626 328.852 261.734 328.92L263.538 329.951C263.646 330.018 263.714 330.127 263.714 330.249V331.876C263.714 331.999 263.782 332.121 263.891 332.175C263.999 332.243 264.135 332.243 264.243 332.175L267.661 330.181Z" fill="#333333"/>
<path fill-rule="evenodd" clip-rule="evenodd" d="M261.517 329.869C261.558 329.842 261.612 329.842 261.653 329.869L262.751 330.507C262.792 330.534 262.819 330.574 262.819 330.629V331.904C262.819 331.958 262.792 331.999 262.751 332.026L261.653 332.663C261.612 332.69 261.558 332.69 261.517 332.663L260.419 332.026C260.378 331.999 260.351 331.958 260.351 331.904V330.629C260.351 330.574 260.378 330.534 260.419 330.507L261.517 329.869Z" fill="#539E43"/>
<path fill-rule="evenodd" clip-rule="evenodd" d="M230.5 324.092C230.283 323.97 230.025 323.97 229.808 324.092L224.099 327.387C223.882 327.509 223.759 327.74 223.759 327.984V334.589C223.759 334.833 223.895 335.064 224.099 335.186L229.808 338.481C230.025 338.603 230.283 338.603 230.5 338.481L236.21 335.186C236.427 335.064 236.549 334.833 236.549 334.589V327.984C236.549 327.74 236.413 327.509 236.21 327.387L230.5 324.092Z" fill="white"/>
<path fill-rule="evenodd" clip-rule="evenodd" d="M230.5 324.092C230.283 323.97 230.025 323.97 229.808 324.092L224.099 327.387C223.882 327.509 223.759 327.74 223.759 327.984V334.589C223.759 334.833 223.895 335.064 224.099 335.186L229.808 338.481C230.025 338.603 230.283 338.603 230.5 338.481L236.21 335.186C236.427 335.064 236.549 334.833 236.549 334.589V327.984C236.549 327.74 236.413 327.509 236.21 327.387L230.5 324.092Z" fill="url(#paint2_linear_114_968)"/>
<mask id="mask0_114_968" style="mask-type:luminance" maskUnits="userSpaceOnUse" x="223" y="324" width="14" height="15">
<path fill-rule="evenodd" clip-rule="evenodd" d="M230.5 324.092C230.283 323.97 230.025 323.97 229.808 324.092L224.099 327.387C223.882 327.509 223.759 327.74 223.759 327.984V334.589C223.759 334.833 223.895 335.064 224.099 335.186L229.808 338.481C230.025 338.603 230.283 338.603 230.5 338.481L236.21 335.186C236.427 335.064 236.549 334.833 236.549 334.589V327.984C236.549 327.74 236.413 327.509 236.21 327.387L230.5 324.092Z" fill="white"/>
</mask>
<g mask="url(#mask0_114_968)">
<path fill-rule="evenodd" clip-rule="evenodd" d="M236.223 327.387L230.487 324.092C230.432 324.064 230.364 324.037 230.31 324.024L223.882 335.036C223.936 335.104 224.004 335.159 224.072 335.199L229.808 338.495C229.971 338.59 230.161 338.617 230.337 338.563L236.373 327.523C236.332 327.469 236.278 327.428 236.223 327.387Z" fill="url(#paint3_linear_114_968)"/>
</g>
<mask id="mask1_114_968" style="mask-type:luminance" maskUnits="userSpaceOnUse" x="223" y="324" width="14" height="15">
<path fill-rule="evenodd" clip-rule="evenodd" d="M230.5 324.092C230.283 323.97 230.025 323.97 229.808 324.092L224.099 327.387C223.882 327.509 223.759 327.74 223.759 327.984V334.589C223.759 334.833 223.895 335.064 224.099 335.186L229.808 338.481C230.025 338.603 230.283 338.603 230.5 338.481L236.21 335.186C236.427 335.064 236.549 334.833 236.549 334.589V327.984C236.549 327.74 236.413 327.509 236.21 327.387L230.5 324.092Z" fill="white"/>
</mask>
<g mask="url(#mask1_114_968)">
<path fill-rule="evenodd" clip-rule="evenodd" d="M236.237 335.186C236.4 335.091 236.522 334.928 236.576 334.752L230.283 324.01C230.12 323.983 229.944 323.997 229.795 324.092L224.099 327.374L230.242 338.576C230.324 338.563 230.419 338.536 230.5 338.495L236.237 335.186Z" fill="url(#paint4_linear_114_968)"/>
<path fill-rule="evenodd" clip-rule="evenodd" d="M236.237 335.186L230.514 338.481C230.432 338.522 230.351 338.549 230.256 338.563L230.364 338.766L236.712 335.091V335.009L236.549 334.738C236.522 334.928 236.4 335.091 236.237 335.186Z" fill="url(#paint5_linear_114_968)"/>
<path fill-rule="evenodd" clip-rule="evenodd" d="M236.237 335.186L230.514 338.481C230.432 338.522 230.351 338.549 230.256 338.563L230.364 338.766L236.712 335.091V335.009L236.549 334.738C236.522 334.928 236.4 335.091 236.237 335.186Z" fill="url(#paint6_linear_114_968)"/>
</g>
</g>
<path d="M312.203 352.43L312.566 351.921L329.749 319.318L329.785 318.973L322.211 304.746C321.576 303.554 319.79 303.855 319.581 305.19L312.203 352.43Z" fill="#FFC24A"/>
<path d="M312.417 352.042L312.692 351.506L329.695 319.245L322.139 304.96C321.511 303.78 319.917 304.081 319.711 305.401L312.417 352.042Z" fill="#FFA712"/>
<path d="M335.307 329.735L340.947 323.959L335.305 313.19C334.77 312.17 333.275 312.167 332.745 313.19L329.731 318.938V319.427L335.307 329.735Z" fill="#F4BD62"/>
<path d="M335.206 329.494L340.689 323.879L335.206 313.439C334.686 312.448 333.421 312.344 332.906 313.338L329.876 319.175L329.785 319.473L335.206 329.494Z" fill="#FFA50E"/>
<path d="M312.203 352.43L312.368 352.264L312.966 352.021L334.953 330.116L335.231 329.358L329.746 318.906L312.203 352.43Z" fill="#F6820C"/>
<path d="M336.011 363.477L355.91 352.38L350.227 317.384C350.049 316.289 348.706 315.856 347.922 316.641L312.203 352.43L331.987 363.476C333.238 364.174 334.76 364.175 336.011 363.477Z" fill="#FDE068"/>
<path d="M355.731 352.287L350.092 317.557C349.916 316.47 348.799 316.02 348.021 316.8L312.424 352.362L331.991 363.299C333.232 363.992 334.743 363.992 335.984 363.3L355.731 352.287Z" fill="#FCCA3F"/>
<path d="M336.011 363.15C334.76 363.848 333.238 363.847 331.987 363.149L312.362 352.262L312.203 352.43L331.987 363.476C333.238 364.174 334.76 364.175 336.011 363.477L355.91 352.38L355.861 352.08L336.011 363.15Z" fill="#EEAB37"/>
<defs>
<linearGradient id="paint0_linear_114_968" x1="34.2172" y1="41.0131" x2="576.768" y2="256.691" gradientUnits="userSpaceOnUse">
<stop stop-color="#E6E0FF" stop-opacity="0.15"/>
<stop offset="1" stop-color="#E6E0FF" stop-opacity="0.3"/>
</linearGradient>
<linearGradient id="paint1_linear_114_968" x1="22.3333" y1="231.473" x2="74.1532" y2="261.351" gradientUnits="userSpaceOnUse">
<stop stop-color="#2298BD"/>
<stop offset="1" stop-color="#0ED7B5"/>
</linearGradient>
<linearGradient id="paint2_linear_114_968" x1="228.921" y1="324.696" x2="222.843" y2="332.051" gradientUnits="userSpaceOnUse">
<stop stop-color="#41873F"/>
<stop offset="0.3288" stop-color="#418B3D"/>
<stop offset="0.6352" stop-color="#419637"/>
<stop offset="0.9319" stop-color="#3FA92D"/>
<stop offset="1" stop-color="#3FAE2A"/>
</linearGradient>
<linearGradient id="paint3_linear_114_968" x1="232.662" y1="340.307" x2="247.865" y2="334.233" gradientUnits="userSpaceOnUse">
<stop offset="0.1376" stop-color="#41873F"/>
<stop offset="0.4032" stop-color="#54A044"/>
<stop offset="0.7136" stop-color="#66B848"/>
<stop offset="0.9081" stop-color="#6CC04A"/>
</linearGradient>
<linearGradient id="paint4_linear_114_968" x1="223.551" y1="339.005" x2="236.763" y2="339.005" gradientUnits="userSpaceOnUse">
<stop offset="0.0919165" stop-color="#6CC04A"/>
<stop offset="0.2864" stop-color="#66B848"/>
<stop offset="0.5968" stop-color="#54A044"/>
<stop offset="0.8624" stop-color="#41873F"/>
</linearGradient>
<linearGradient id="paint5_linear_114_968" x1="223.551" y1="340.885" x2="236.763" y2="340.885" gradientUnits="userSpaceOnUse">
<stop offset="0.0919165" stop-color="#6CC04A"/>
<stop offset="0.2864" stop-color="#66B848"/>
<stop offset="0.5968" stop-color="#54A044"/>
<stop offset="0.8624" stop-color="#41873F"/>
</linearGradient>
<linearGradient id="paint6_linear_114_968" x1="222.189" y1="325.246" x2="220.944" y2="342.012" gradientUnits="userSpaceOnUse">
<stop stop-color="#41873F"/>
<stop offset="0.3288" stop-color="#418B3D"/>
<stop offset="0.6352" stop-color="#419637"/>
<stop offset="0.9319" stop-color="#3FA92D"/>
<stop offset="1" stop-color="#3FAE2A"/>
</linearGradient>
<clipPath id="clip0_114_968">
<rect width="60" height="60" fill="white" transform="translate(112 112)"/>
</clipPath>
<clipPath id="clip1_114_968">
<rect width="60" height="60" fill="white" transform="translate(208 208)"/>
</clipPath>
<clipPath id="clip2_114_968">
<rect width="60" height="60" fill="white" transform="translate(300 208)"/>
</clipPath>
<clipPath id="clip3_114_968">
<rect width="60" height="17.1094" fill="white" transform="translate(112 325.445)"/>
</clipPath>
<clipPath id="clip4_114_968">
<rect width="60" height="17.1094" fill="white" transform="translate(112 325.445)"/>
</clipPath>
<clipPath id="clip5_114_968">
<rect width="60" height="17.1094" fill="white" transform="translate(112 325.445)"/>
</clipPath>
<clipPath id="clip6_114_968">
<rect width="7.5" height="16.7578" fill="white" transform="translate(112 325.445)"/>
</clipPath>
<clipPath id="clip7_114_968">
<rect width="60" height="60" fill="white" transform="translate(208 304)"/>
</clipPath>
</defs>
</svg>
